HIERARCHY
ROOT hip
{
  OFFSET 0 0 0
  CHANNELS 6 Xposition Yposition Zposition Zrotation Yrotation Xrotation
  JOINT abdomen
  {
    OFFSET 0 20.6881 -0.73152
    CHANNELS 3 Zrotation Xrotation Yrotation
    JOINT chest
    {
      OFFSET 0 11.7043 -0.48768
      CHANNELS 3 Zrotation Xrotation Yrotation
      JOINT neck
      {
        OFFSET 0 22.1894 -2.19456
        CHANNELS 3 Zrotation Xrotation Yrotation
        JOINT head
        {
          OFFSET -0.24384 7.07133 1.2192
          CHANNELS 3 Zrotation Xrotation Yrotation
          JOINT leftEye
          {
            OFFSET 4.14528 8.04674 8.04672
            CHANNELS 3 Zrotation Xrotation Yrotation
            End Site
            {
              OFFSET 1 0 0
            }
          }
          JOINT rightEye
          {
            OFFSET -3.6576 8.04674 8.04672
            CHANNELS 3 Zrotation Xrotation Yrotation
            End Site
            {
              OFFSET 1 0 0
            }
          }
        }
      }
      JOINT rCollar
      {
        OFFSET -2.68224 19.2634 -4.8768
        CHANNELS 3 Zrotation Xrotation Yrotation
        JOINT rShldr
        {
          OFFSET -8.77824 -1.95073 1.46304
          CHANNELS 3 Zrotation Xrotation Yrotation
          JOINT rForeArm
          {
            OFFSET -28.1742 -1.7115 0.48768
            CHANNELS 3 Zrotation Xrotation Yrotation
            JOINT rHand
            {
              OFFSET -22.5879 0.773209 7.07136
              CHANNELS 3 Zrotation Xrotation Yrotation
              JOINT rThumb1
              {
                OFFSET -1.2192 -0.487915 3.41376
                CHANNELS 3 Zrotation Xrotation Yrotation
                JOINT rThumb2
                {
                  OFFSET -3.37035 -0.52449 3.41376
                  CHANNELS 3 Zrotation Xrotation Yrotation
                  End Site
                  {
                    OFFSET -1.78271 -1.18214 1.43049
                  }
                }
              }
              JOINT rIndex1
              {
                OFFSET -7.75947 0.938293 5.60832
                CHANNELS 3 Zrotation Xrotation Yrotation
                JOINT rIndex2
                {
                  OFFSET -2.54057 -0.884171 1.56538
                  CHANNELS 3 Zrotation Xrotation Yrotation
                  End Site
                  {
                    OFFSET -1.62519 -0.234802 1.16502
                  }
                }
              }
              JOINT rMid1
              {
                OFFSET -8.24714 1.18213 3.41376
                CHANNELS 3 Zrotation Xrotation Yrotation
                JOINT rMid2
                {
                  OFFSET -3.10165 -0.590103 1.0647
                  CHANNELS 3 Zrotation Xrotation Yrotation
                  End Site
                  {
                    OFFSET -2.48547 -0.328903 0.83742
                  }
                }
              }
              JOINT rRing1
              {
                OFFSET -8.82822 0.546677 1.51678
                CHANNELS 3 Zrotation Xrotation Yrotation
                JOINT rRing2
                {
                  OFFSET -2.60934 -0.819778 -0.0198488
                  CHANNELS 3 Zrotation Xrotation Yrotation
                  End Site
                  {
                    OFFSET -2.33842 -0.294052 0.168128
                  }
                }
              }
              JOINT rPinky1
              {
                OFFSET -8.27202 -0.0477905 -0.4584
                CHANNELS 3 Zrotation Xrotation Yrotation
                JOINT rPinky2
                {
                  OFFSET -1.82734 -0.647385 -0.700984
                  CHANNELS 3 Zrotation Xrotation Yrotation
                  End Site
                  {
                    OFFSET -1.69225 -0.51767 -0.607171
                  }
                }
              }
            }
          }
        }
      }
      JOINT lCollar
      {
        OFFSET 2.68224 19.2634 -4.8768
        CHANNELS 3 Zrotation Xrotation Yrotation
        JOINT lShldr
        {
          OFFSET 8.77824 -1.95073 1.46304
          CHANNELS 3 Zrotation Xrotation Yrotation
          JOINT lForeArm
          {
            OFFSET 28.1742 -1.7115 0.48768
            CHANNELS 3 Zrotation Xrotation Yrotation
            JOINT lHand
            {
              OFFSET 22.5879 0.773209 7.07136
              CHANNELS 3 Zrotation Xrotation Yrotation
              JOINT lThumb1
              {
                OFFSET 1.2192 -0.487915 3.41376
                CHANNELS 3 Zrotation Xrotation Yrotation
                JOINT lThumb2
                {
                  OFFSET 3.37035 -0.52449 3.41376
                  CHANNELS 3 Zrotation Xrotation Yrotation
                  End Site
                  {
                    OFFSET 1.78271 -1.18214 1.43049
                  }
                }
              }
              JOINT lIndex1
              {
                OFFSET 7.75947 0.938293 5.60832
                CHANNELS 3 Zrotation Xrotation Yrotation
                JOINT lIndex2
                {
                  OFFSET 2.54057 -0.884171 1.56538
                  CHANNELS 3 Zrotation Xrotation Yrotation
                  End Site
                  {
                    OFFSET 1.62519 -0.234802 1.16502
                  }
                }
              }
              JOINT lMid1
              {
                OFFSET 8.24714 1.18213 3.41376
                CHANNELS 3 Zrotation Xrotation Yrotation
                JOINT lMid2
                {
                  OFFSET 3.10165 -0.590103 1.0647
                  CHANNELS 3 Zrotation Xrotation Yrotation
                  End Site
                  {
                    OFFSET 2.48547 -0.328903 0.83742
                  }
                }
              }
              JOINT lRing1
              {
                OFFSET 8.82822 0.546677 1.51678
                CHANNELS 3 Zrotation Xrotation Yrotation
                JOINT lRing2
                {
                  OFFSET 2.60934 -0.819778 -0.0198488
                  CHANNELS 3 Zrotation Xrotation Yrotation
                  End Site
                  {
                    OFFSET 2.33842 -0.294052 0.168128
                  }
                }
              }
              JOINT lPinky1
              {
                OFFSET 8.27202 -0.0477905 -0.4584
                CHANNELS 3 Zrotation Xrotation Yrotation
                JOINT lPinky2
                {
                  OFFSET 1.82734 -0.647385 -0.700984
                  CHANNELS 3 Zrotation Xrotation Yrotation
                  End Site
                  {
                    OFFSET 1.69225 -0.51767 -0.607171
                  }
                }
              }
            }
          }
        }
      }
    }
  }
  JOINT rButtock
  {
    OFFSET -8.77824 4.35084 1.2192
    CHANNELS 3 Zrotation Xrotation Yrotation
    JOINT rThigh
    {
      OFFSET 0 -1.70687 -2.19456
      CHANNELS 3 Zrotation Xrotation Yrotation
      JOINT rShin
      {
        OFFSET 0 -36.8199 0.73152
        CHANNELS 3 Zrotation Xrotation Yrotation
        JOINT rFoot
        {
          OFFSET 0.73152 -45.1104 -5.12064
          CHANNELS 3 Zrotation Xrotation Yrotation
          End Site
          {
            OFFSET -1.1221 -3.69964 12.103
          }
        }
      }
    }
  }
  JOINT lButtock
  {
    OFFSET 8.77824 4.35084 1.2192
    CHANNELS 3 Zrotation Xrotation Yrotation
    JOINT lThigh
    {
      OFFSET 0 -1.70687 -2.19456
      CHANNELS 3 Zrotation Xrotation Yrotation
      JOINT lShin
      {
        OFFSET 0 -36.8199 0.73152
        CHANNELS 3 Zrotation Xrotation Yrotation
        JOINT lFoot
        {
          OFFSET -0.73152 -45.1104 -5.12064
          CHANNELS 3 Zrotation Xrotation Yrotation
          End Site
          {
            OFFSET 1.1221 -3.69964 12.103
          }
        }
      }
    }
  }
}
MOTION
Frames:	4
Frame Time:	0.00833333
-194.547 85.1237 36.2497 0.0 0.0 0.0 0.435968 -0.0238513 0.0128199 0.121273 -0.0396248 0.0210491 2.89508e-15 -7.95139e-16 1.2424e-17 8.80243e-15 3.18055e-15 1.70831e-17 -0.0 0.0 0.0 -0.0 0.0 0.0 1.48954e-15 -1.2424e-17 1.49089e-16 3.17889e-14 -1.49089e-16 9.93923e-16 5.19723e-13 -1.55847e-13 1.90833e-14 5.97727e-12 1.5868e-13 6.36111e-15 1.4093e-11 7.30532e-15 6.99722e-14 2.4332e-11 1.27222e-14 1.13705e-13 1.40978e-11 8.74653e-15 6.04305e-14 7.73091 5.47488 0.417314 1.40941e-11 8.15017e-15 6.99722e-14 2.90554 0.965183 0.102902 1.41026e-11 7.7526e-15 6.99722e-14 10.2786 0.731801 0.0259123 1.40922e-11 7.95139e-15 7.31528e-14 2.22167 -0.733487 -0.20892 1.39294e-15 -1.2424e-17 -1.49089e-16 2.82669e-14 1.30452e-16 -5.96354e-16 5.20716e-13 1.58431e-13 -6.36111e-15 5.96839e-12 -1.46902e-13 4.77083e-14 1.40837e-11 2.17791e-14 7.31528e-14 2.43245e-11 3.81667e-14 1.35969e-13 1.40755e-11 2.50469e-14 7.95139e-14 -7.73091 5.47488 -0.417314 1.40837e-11 2.24627e-14 7.31528e-14 -2.90554 0.965183 -0.102902 1.40676e-11 2.27608e-14 7.31528e-14 -10.2786 0.731801 -0.0259123 1.40837e-11 2.06736e-14 6.04305e-14 -2.22167 -0.733487 0.20892 -2.03217e-16 0.0 -3.88251e-19 0.652033 -4.71109 -0.0694789 -0.000844386 2.99806 0.00381616 -0.326428 1.72325 0.0697941 2.03217e-16 0.0 3.88251e-19 0.0331924 -2.68026 0.0231589 0.0057946 -0.679747 0.0505388 0.296105 3.3702 -0.0966719
-186.779 83.7511 28.9679 -106.987 86.6718 -94.5136 2.11969 -1.34165 2.06575 -1.33909 -3.62394 0.474815 3.07445 -0.0303189 1.88129 -2.12507 8.53407 4.58336 -0.0 0.0 0.0 -0.0 0.0 0.0 4.45333e-14 2.83441e-13 -4.23625e-14 20.2454 13.0741 -1.84581 -5.06967 -2.50252 7.69039 0.00457643 -1.50075 -0.210655 -8.81905e-10 -3.96401e-10 5.59599e-10 -1.52263e-09 -6.84744e-10 9.65712e-10 -8.81901e-10 -3.96402e-10 5.59588e-10 7.73091 5.47488 0.417314 -8.81904e-10 -3.96402e-10 5.59597e-10 2.90554 0.965183 0.102902 -8.81898e-10 -3.96402e-10 5.59598e-10 10.2786 0.731801 0.0259123 -8.81907e-10 -3.96402e-10 5.59602e-10 2.22167 -0.733487 -0.20892 4.4446e-14 2.83441e-13 -4.2663e-14 -19.295 7.63524 3.63159 5.09218 -2.51878 -7.71841 -0.000996985 0.705913 -0.0991832 2.00869e-10 -4.61083e-10 -1.11987e-09 3.43364e-10 -7.98704e-10 -1.93806e-09 2.00861e-10 -4.61084e-10 -1.11986e-09 -7.73091 5.47488 -0.417314 2.0087e-10 -4.61083e-10 -1.11987e-09 -2.90554 0.965183 -0.102902 2.00855e-10 -4.61081e-10 -1.11987e-09 -10.2786 0.731801 -0.0259123 2.0087e-10 -4.61082e-10 -1.11988e-09 -2.22167 -0.733487 0.20892 -2.03217e-16 0.0 -3.88251e-19 5.24868 -6.94803 6.6078 0.00928895 3.71731 0.0276065 1.1656 -0.614346 -9.20489 2.03217e-16 0.0 3.88251e-19 -0.505474 -3.42875 -8.47808 0.0104746 -1.57538 0.119667 -0.0974968 -6.35382 -0.515838
-186.803 83.7371 29.0336 -109.007 86.525 -96.4899 4.00031 -2.72863 4.24091 -2.82452 -7.41039 0.960536 6.30708 -0.0664427 3.86095 -5.90429 17.3872 9.76175 -0.0 0.0 0.0 -0.0 0.0 0.0 9.1638e-14 6.01103e-13 -8.93692e-14 42.6647 26.8456 -4.14133 -9.70637 -4.99851 15.8682 -0.00260389 -3.08891 -0.434071 -1.82482e-09 -8.13347e-10 1.14709e-09 -3.15052e-09 -1.40498e-09 1.97957e-09 -1.82481e-09 -8.1335e-10 1.14708e-09 7.73091 5.47488 0.417314 -1.82482e-09 -8.13351e-10 1.14709e-09 2.90554 0.965183 0.102902 -1.82481e-09 -8.13351e-10 1.14709e-09 10.2786 0.731801 0.0259123 -1.82482e-09 -8.1335e-10 1.1471e-09 2.22167 -0.733487 -0.20892 9.15605e-14 6.01102e-13 -8.96736e-14 -40.7764 15.6201 7.68039 9.75027 -5.03381 -15.9341 0.000609866 1.442 -0.202657 4.04653e-10 -9.66152e-10 -2.31201e-09 6.91606e-10 -1.67361e-09 -4.00124e-09 4.04646e-10 -9.66159e-10 -2.312e-09 -7.73091 5.47488 -0.417314 4.04654e-10 -9.66154e-10 -2.31201e-09 -2.90554 0.965183 -0.102902 4.04642e-10 -9.6615e-10 -2.31201e-09 -10.2786 0.731801 -0.0259123 4.04655e-10 -9.6615e-10 -2.31201e-09 -2.22167 -0.733487 0.20892 -2.03217e-16 0.0 -3.88251e-19 10.6715 -9.14041 13.751 0.0192207 4.47476 0.0517216 1.92669 -2.95282 -19.038 2.03217e-16 0.0 3.88251e-19 -1.31723 -4.09864 -17.4793 0.017751 -2.52127 0.192927 -0.673963 -16.6391 -0.990485
-186.806 83.7305 29.0664 -111.938 86.412 -99.4245 5.77042 -3.95678 6.18472 -4.08686 -10.7898 1.40433 9.22931 -0.0905645 5.64389 -10.781 24.9133 15.0239 -0.0 0.0 0.0 -0.0 0.0 0.0 1.30621e-13 8.50347e-13 -1.27386e-13 63.8738 39.035 -6.95079 -13.2417 -6.96773 23.2305 -0.0194633 -4.50199 -0.633703 -2.6739e-09 -1.18922e-09 1.67866e-09 -4.61654e-09 -2.05426e-09 2.89691e-09 -2.6739e-09 -1.18922e-09 1.67864e-09 7.73091 5.47488 0.417314 -2.6739e-09 -1.18922e-09 1.67865e-09 2.90554 0.965183 0.102902 -2.6739e-09 -1.18922e-09 1.67865e-09 10.2786 0.731801 0.0259123 -2.67391e-09 -1.18922e-09 1.67866e-09 2.22167 -0.733487 -0.20892 1.30552e-13 8.50346e-13 -1.27691e-13 -60.9718 22.5223 11.7017 13.2896 -7.00904 -23.3171 0.0043452 2.11771 -0.29773 5.7444e-10 -1.38329e-09 -3.35975e-09 9.81443e-10 -2.39619e-09 -5.81446e-09 5.74432e-10 -1.3833e-09 -3.35975e-09 -7.73091 5.47488 -0.417314 5.74441e-10 -1.38329e-09 -3.35975e-09 -2.90554 0.965183 -0.102902 5.7443e-10 -1.38329e-09 -3.35975e-09 -10.2786 0.731801 -0.0259123 5.74443e-10 -1.38329e-09 -3.35975e-09 -2.22167 -0.733487 0.20892 -2.03217e-16 0.0 -3.88251e-19 15.9885 -10.8668 20.1931 0.0277566 5.1558 0.0753282 1.96427 -4.70087 -27.8544 2.03217e-16 0.0 3.88251e-19 -2.2171 -4.54962 -25.5208 0.0263292 -3.36662 0.258242 -1.35226 -25.795 -1.49388
